<svg width="32" height="55" viewBox="0 0 32 55" xmlns="http://www.w3.org/2000/svg">
  <path d="M30.814 7.75253e-06H27.6396C27.5391 0.000308953 27.4409 0.0310423 27.3578 0.0882615C27.2747 0.145481 27.2104 0.22657 27.1732 0.321091L19.9767 18.7118C18.4228 22.6781 12.8789 22.6781 11.325 18.7118L4.12861 0.321091C4.09216 0.226571 4.02841 0.145368 3.94568 0.0880886C3.86295 0.0308095 3.76508 0.000115298 3.66485 7.75253e-06H0.466435C0.405308 -0.000347885 0.344713 0.0115356 0.288138 0.03497C0.231563 0.0584044 0.180129 0.092924 0.136781 0.136555C0.0934333 0.180186 0.0590349 0.232063 0.0355618 0.2892C0.0120887 0.346337 -1.00946e-06 0.407606 0 0.469487V35.168C-1.83457e-06 35.3049 0.0535542 35.4363 0.148949 35.5333C0.244345 35.6304 0.373812 35.6853 0.509073 35.686H3.5449C3.6564 35.6862 3.76529 35.7202 3.85747 35.7837C3.94966 35.8472 4.0209 35.9372 4.06198 36.0422L11.3144 54.5462C12.8683 58.5125 18.4122 58.5125 19.9661 54.5462L27.2185 36.0422C27.2596 35.9372 27.3308 35.8472 27.423 35.7837C27.5152 35.7202 27.6241 35.6862 27.7356 35.686H30.7687C30.8358 35.686 30.9022 35.6726 30.9641 35.6465C31.0261 35.6205 31.0823 35.5823 31.1296 35.5341C31.1769 35.486 31.2144 35.4288 31.2398 35.366C31.2652 35.3032 31.2781 35.2359 31.2778 35.168V0.469487C31.2778 0.344973 31.2289 0.225563 31.142 0.137518C31.055 0.0494734 30.937 7.75253e-06 30.814 7.75253e-06Z" fill="#ff3561"></path>
</svg>
